<?xml version="1.0" encoding="utf-8"?>
<!-- Generator: Adobe Illustrator 19.0.0, SVG Export Plug-In . SVG Version: 6.00 Build 0)  -->
<svg version="1.1" id="icon_x5F_image_x5F_no_x5F_hover_1_"
	 xmlns="http://www.w3.org/2000/svg" xmlns:xlink="http://www.w3.org/1999/xlink" x="0px" y="0px" viewBox="-284 376 42 42"
	 style="enable-background:new -284 376 42 42;" xml:space="preserve">
<style type="text/css">
	.st0{fill:#FFFFFF;}
</style>
<g id="icon_x5F_image_x5F_no_x5F_hover">
	<g>
		<path class="st0" d="M-264,391c-2.8,0-5,2.3-5,5c0,2.8,2.3,5,5,5c2.8,0,5-2.3,5-5C-259,393.2-261.2,391-264,391z M-263,376
			c-11.6,0-21,9.4-21,21s9.4,21,21,21s21-9.4,21-21S-251.4,376-263,376z M-254,406h-1.6l-4.3-4.2c-1.2,0.8-2.6,1.3-4.1,1.3
			c-3.9,0-7-3.1-7-7s3.1-7,7-7s7,3.1,7,7c0,1.5-0.5,2.9-1.3,4.1l4.3,4.2V406z"/>
	</g>
</g>
</svg>
