<?xml version="1.0" encoding="utf-8"?>
<!-- Generator: Adobe Illustrator 19.0.0, SVG Export Plug-In . SVG Version: 6.00 Build 0)  -->
<svg version="1.1" id="Слой_1" xmlns="http://www.w3.org/2000/svg" xmlns:xlink="http://www.w3.org/1999/xlink" x="0px" y="0px"
	 viewBox="-289 381 32 32" style="enable-background:new -289 381 32 32;" xml:space="preserve">
<style type="text/css">
	.st0{fill:#00B2FF;}
</style>
<path class="st0" d="M-273,384.2L-273,384.2c0.6,0,1.1,0.7,1.1,1.6v3.2c0,0.9-0.5,1.6-1.1,1.6l0,0c-0.6,0-1.1-0.7-1.1-1.6v-3.2
	C-274.1,384.9-273.6,384.2-273,384.2z">
<animate  fill="remove" from="1" to="0" additive="replace" calcMode="linear" repeatCount="indefinite" begin="0s" dur="1s" restart="always" attributeName="opacity" accumulate="none">
		</animate>
</path>
<path class="st0" d="M-266.6,385.9L-266.6,385.9c0.5,0.3,0.6,1.2,0.2,1.9l-1.6,2.8c-0.4,0.8-1.2,1.1-1.8,0.8l0,0
	c-0.5-0.3-0.6-1.2-0.2-1.9l1.6-2.8C-267.9,386-267.1,385.6-266.6,385.9z">
<animate  fill="remove" from="1" to="0" additive="replace" calcMode="linear" repeatCount="indefinite" begin="0.08333333333333333s" dur="1s" restart="always" attributeName="opacity" accumulate="none">
		</animate>
</path>
<path class="st0" d="M-261.9,390.6L-261.9,390.6c0.3,0.5-0.1,1.3-0.8,1.8l-2.8,1.6c-0.8,0.4-1.6,0.4-1.9-0.2l0,0
	c-0.3-0.5,0.1-1.3,0.8-1.8l2.8-1.6C-263.1,390-262.2,390.1-261.9,390.6z">
<animate  fill="remove" from="1" to="0" additive="replace" calcMode="linear" repeatCount="indefinite" begin="0.16666666666666666s" dur="1s" restart="always" attributeName="opacity" accumulate="none">
		</animate>
</path>
<path class="st0" d="M-260.2,397L-260.2,397c0,0.6-0.7,1.1-1.6,1.1h-3.2c-0.9,0-1.6-0.5-1.6-1.1l0,0c0-0.6,0.7-1.1,1.6-1.1h3.2
	C-260.9,395.9-260.2,396.4-260.2,397z">
<animate  fill="remove" from="1" to="0" additive="replace" calcMode="linear" repeatCount="indefinite" begin="0.25s" dur="1s" restart="always" attributeName="opacity" accumulate="none">
		</animate>
</path>
<path class="st0" d="M-261.9,403.4L-261.9,403.4c-0.3,0.5-1.2,0.6-1.9,0.2l-2.8-1.6c-0.8-0.4-1.1-1.2-0.8-1.8l0,0
	c0.3-0.5,1.2-0.6,1.9-0.2l2.8,1.6C-262,402.1-261.6,402.9-261.9,403.4z">
<animate  fill="remove" from="1" to="0" additive="replace" calcMode="linear" repeatCount="indefinite" begin="0.3333333333333333s" dur="1s" restart="always" attributeName="opacity" accumulate="none">
		</animate>
</path>
<path class="st0" d="M-266.6,408.1L-266.6,408.1c-0.5,0.3-1.3-0.1-1.8-0.8l-1.6-2.8c-0.4-0.8-0.4-1.6,0.2-1.9l0,0
	c0.5-0.3,1.3,0.1,1.8,0.8l1.6,2.8C-266,406.9-266.1,407.8-266.6,408.1z">
<animate  fill="remove" from="1" to="0" additive="replace" calcMode="linear" repeatCount="indefinite" begin="0.4166666666666667s" dur="1s" restart="always" attributeName="opacity" accumulate="none">
		</animate>
</path>
<path class="st0" d="M-273,409.8L-273,409.8c-0.6,0-1.1-0.7-1.1-1.6V405c0-0.9,0.5-1.6,1.1-1.6l0,0c0.6,0,1.1,0.7,1.1,1.6v3.2
	C-271.9,409.1-272.4,409.8-273,409.8z">
<animate  fill="remove" from="1" to="0" additive="replace" calcMode="linear" repeatCount="indefinite" begin="0.5s" dur="1s" restart="always" attributeName="opacity" accumulate="none">
		</animate>
</path>
<path class="st0" d="M-279.4,408.1L-279.4,408.1c-0.5-0.3-0.6-1.2-0.2-1.9l1.6-2.8c0.4-0.8,1.2-1.1,1.8-0.8l0,0
	c0.5,0.3,0.6,1.2,0.2,1.9l-1.6,2.8C-278.1,408-278.9,408.4-279.4,408.1z">
<animate  fill="remove" from="1" to="0" additive="replace" calcMode="linear" repeatCount="indefinite" begin="0.5833333333333334s" dur="1s" restart="always" attributeName="opacity" accumulate="none">
		</animate>
</path>
<path class="st0" d="M-284.1,403.4L-284.1,403.4c-0.3-0.5,0.1-1.3,0.8-1.8l2.8-1.6c0.8-0.4,1.6-0.4,1.9,0.2l0,0
	c0.3,0.5-0.1,1.3-0.8,1.8l-2.8,1.6C-282.9,404-283.8,403.9-284.1,403.4z">
<animate  fill="remove" from="1" to="0" additive="replace" calcMode="linear" repeatCount="indefinite" begin="0.6666666666666666s" dur="1s" restart="always" attributeName="opacity" accumulate="none">
		</animate>
</path>
<path class="st0" d="M-285.8,397L-285.8,397c0-0.6,0.7-1.1,1.6-1.1h3.2c0.9,0,1.6,0.5,1.6,1.1l0,0c0,0.6-0.7,1.1-1.6,1.1h-3.2
	C-285.1,398.1-285.8,397.6-285.8,397z">
<animate  fill="remove" from="1" to="0" additive="replace" calcMode="linear" repeatCount="indefinite" begin="0.75s" dur="1s" restart="always" attributeName="opacity" accumulate="none">
		</animate>
</path>
<path class="st0" d="M-284.1,390.6L-284.1,390.6c0.3-0.5,1.2-0.6,1.9-0.2l2.8,1.6c0.8,0.4,1.1,1.2,0.8,1.8l0,0
	c-0.3,0.5-1.2,0.6-1.9,0.2l-2.8-1.6C-284,391.9-284.4,391.1-284.1,390.6z">
<animate  fill="remove" from="1" to="0" additive="replace" calcMode="linear" repeatCount="indefinite" begin="0.8333333333333334s" dur="1s" restart="always" attributeName="opacity" accumulate="none">
		</animate>
</path>
<path class="st0" d="M-279.4,385.9L-279.4,385.9c0.5-0.3,1.3,0.1,1.8,0.8l1.6,2.8c0.4,0.8,0.4,1.6-0.2,1.9l0,0
	c-0.5,0.3-1.3-0.1-1.8-0.8l-1.6-2.8C-280,387.1-279.9,386.2-279.4,385.9z">
<animate  fill="remove" from="1" to="0" additive="replace" calcMode="linear" repeatCount="indefinite" begin="0.9166666666666666s" dur="1s" restart="always" attributeName="opacity" accumulate="none">
		</animate>
</path>
</svg>
