<?xml version="1.0" encoding="utf-8"?>
<!-- Generator: Adobe Illustrator 19.0.0, SVG Export Plug-In . SVG Version: 6.00 Build 0)  -->
<svg version="1.1" id="Слой_1" xmlns="http://www.w3.org/2000/svg" xmlns:xlink="http://www.w3.org/1999/xlink" x="0px" y="0px"
	 viewBox="282.9 403.9 28.1 33" style="enable-background:new 282.9 403.9 28.1 33;" xml:space="preserve">
<style type="text/css">
	.st0{fill:none;}
	.st1{fill:#6C6E74;}
</style>
<g>
	<g>
		<rect id="_x3C_Фрагмент_x3E__1_" x="275" y="401" class="st0" width="45" height="39"/>
	</g>
	<g id="cp_x5F_logo_3_">
		<g id="XMLID_36_">
			<path id="XMLID_37_" class="st1" d="M302,418.2c0.2,0.1,0.4,0.2,0.5,0.2l0.7,2.9l1.8-2.6l-0.4-0.2h-0.1c0.4-0.9,0.6-1.7,0.4-2.1
				c-0.3-0.4-1.6-1.8-1.7-1.9c-0.5-0.5-1.1-0.3-1.4,0.2c-0.2,0.2-0.3,0.4-0.4,0.6C301.3,415.3,300.3,417,302,418.2z M290,425
				c0.1,0,2.3-0.1,2.9-0.7c0,0,1-1.7,0.1-2.4c-0.3-0.2-0.7-0.2-2.1-0.1s-1.9-0.2-1.9-0.2l1.1-0.8l-0.9-3.7l9.6-2.2l0,0
				c-1.2-1.1-2.9-1.9-5.8-1.6l-0.6-0.6c0.3-0.2,0.5-0.2,0.8-0.5c-0.9-1.9-1.3-3.9-1.4-5c0.7-0.2,3.3-0.4,3.9-3.3
				c0,0-1.9,1.3-3.4,0.6c-2.5-1.3-4.2,1-4.2,1s-1.7,0.1-1.6,1.1c0.1,3,1.1,5.2,3,7.7c-2.3,1-3.4,2-4.5,3.5c-1.4,2.1-2.1,4.8-2.1,4.8
				s2,2.4,6.7,2.9C289.7,425.3,289.9,425.2,290,425z M287.3,436.3c-0.6-1.1,0.3-2.9,0.3-2.9c0.1,0,0.2,0,0.2,0l0.1,0.4h0.1
				c2.6,0.5,5.5,0.4,6,0c1.4-1,2.7-3.5,3.2-4.8c0,0,2.6-1.5,4.7-1.3c1.5,0.2,2.1,1.5,2.1,3.4c0.1,0,0.6,0.1,0.6,0.1s0,0.2-0.1,0.3
				c0,0.1-0.2,0.3-0.2,0.4c0.2,0.7,0.5,1.6,1.3,1.9c2.7-0.6,5.3-3.2,5.3-3.2l-1-0.9c-0.8,0.6-2,1.2-2.8,1.3c0,0,0.8-6-0.1-6.8
				c-1.1-1-3-1.4-3.9-1.3l1,2.7l-11.3,2.7c0,0-0.6-1.7-0.8-2.2c0,1.4-0.9,3.5-1.3,4c-0.9,1.1-2.6,1.1-3.8,0.9l-1-0.2
				c0,0-0.9,1.2-1.2,1.9c-1.4,3.1,1.3,4.3,1.3,4.3h22.4c-0.5-0.2-1-0.3-1.6-0.4C302.5,435.1,292.3,435.1,287.3,436.3z"/>
		</g>
	</g>
</g>
<rect id="_x3C_Фрагмент_x3E_" x="280" y="403.9" class="st0" width="1" height="1"/>
<rect id="_x3C_Фрагмент_x3E__2_" x="280" y="403.9" class="st0" width="31" height="33"/>
</svg>
